  0
SECTION
  2
HEADER
  9
$INSUNITS
 70
4
  0
ENDSEC
  0
SECTION
  2
ENTITIES
  0
LINE
  8
Layer0
 10
0.0
 20
0.0
 11
10.0
 21
10.0
  0
LINE
  8
Layer0
 10
10.0
 20
0.0
 11
20.0
 21
10.0
  0
LINE
  8
Layer0
 10
20.0
 20
0.0
 11
30.0
 21
10.0
  0
LINE
  8
Layer0
 10
30.0
 20
0.0
 11
40.0
 21
10.0
  0
LINE
  8
Layer0
 10
40.0
 20
0.0
 11
50.0
 21
10.0
  0
LINE
  8
Layer0
 10
50.0
 20
0.0
 11
60.0
 21
10.0
  0
LINE
  8
Layer0
 10
60.0
 20
0.0
 11
70.0
 21
10.0
  0
LINE
  8
Layer0
 10
70.0
 20
0.0
 11
80.0
 21
10.0
  0
LINE
  8
Layer0
 10
80.0
 20
0.0
 11
90.0
 21
10.0
  0
LINE
  8
Layer0
 10
90.0
 20
0.0
 11
100.0
 21
10.0
  0
LINE
  8
Layer0
 10
100.0
 20
0.0
 11
110.0
 21
10.0
  0
LINE
  8
Layer0
 10
110.0
 20
0.0
 11
120.0
 21
10.0
  0
LINE
  8
Layer0
 10
120.0
 20
0.0
 11
130.0
 21
10.0
  0
LINE
  8
Layer0
 10
130.0
 20
0.0
 11
140.0
 21
10.0
  0
LINE
  8
Layer0
 10
140.0
 20
0.0
 11
150.0
 21
10.0
  0
LINE
  8
Layer0
 10
150.0
 20
0.0
 11
160.0
 21
10.0
  0
LINE
  8
Layer0
 10
160.0
 20
0.0
 11
170.0
 21
10.0
  0
LINE
  8
Layer0
 10
170.0
 20
0.0
 11
180.0
 21
10.0
  0
LINE
  8
Layer0
 10
180.0
 20
0.0
 11
190.0
 21
10.0
  0
LINE
  8
Layer0
 10
190.0
 20
0.0
 11
200.0
 21
10.0
  0
LINE
  8
Layer0
 10
200.0
 20
0.0
 11
210.0
 21
10.0
  0
LINE
  8
Layer0
 10
210.0
 20
0.0
 11
220.0
 21
10.0
  0
LINE
  8
Layer0
 10
220.0
 20
0.0
 11
230.0
 21
10.0
  0
LINE
  8
Layer0
 10
230.0
 20
0.0
 11
240.0
 21
10.0
  0
LINE
  8
Layer0
 10
240.0
 20
0.0
 11
250.0
 21
10.0
  0
LINE
  8
Layer0
 10
250.0
 20
0.0
 11
260.0
 21
10.0
  0
LINE
  8
Layer0
 10
260.0
 20
0.0
 11
270.0
 21
10.0
  0
LINE
  8
Layer0
 10
270.0
 20
0.0
 11
280.0
 21
10.0
  0
LINE
  8
Layer0
 10
280.0
 20
0.0
 11
290.0
 21
10.0
  0
LINE
  8
Layer0
 10
290.0
 20
0.0
 11
300.0
 21
10.0
  0
LINE
  8
Layer0
 10
300.0
 20
0.0
 11
310.0
 21
10.0
  0
LINE
  8
Layer0
 10
310.0
 20
0.0
 11
320.0
 21
10.0
  0
LINE
  8
Layer0
 10
320.0
 20
0.0
 11
330.0
 21
10.0
  0
LINE
  8
Layer0
 10
330.0
 20
0.0
 11
340.0
 21
10.0
  0
LINE
  8
Layer0
 10
340.0
 20
0.0
 11
350.0
 21
10.0
  0
LINE
  8
Layer0
 10
350.0
 20
0.0
 11
360.0
 21
10.0
  0
LINE
  8
Layer0
 10
360.0
 20
0.0
 11
370.0
 21
10.0
  0
LINE
  8
Layer0
 10
370.0
 20
0.0
 11
380.0
 21
10.0
  0
LINE
  8
Layer0
 10
380.0
 20
0.0
 11
390.0
 21
10.0
  0
LINE
  8
Layer0
 10
390.0
 20
0.0
 11
400.0
 21
10.0
  0
LINE
  8
Layer0
 10
400.0
 20
0.0
 11
410.0
 21
10.0
  0
LINE
  8
Layer0
 10
410.0
 20
0.0
 11
420.0
 21
10.0
  0
LINE
  8
Layer0
 10
420.0
 20
0.0
 11
430.0
 21
10.0
  0
LINE
  8
Layer0
 10
430.0
 20
0.0
 11
440.0
 21
10.0
  0
LINE
  8
Layer0
 10
440.0
 20
0.0
 11
450.0
 21
10.0
  0
LINE
  8
Layer0
 10
450.0
 20
0.0
 11
460.0
 21
10.0
  0
LINE
  8
Layer0
 10
460.0
 20
0.0
 11
470.0
 21
10.0
  0
LINE
  8
Layer0
 10
470.0
 20
0.0
 11
480.0
 21
10.0
  0
LINE
  8
Layer0
 10
480.0
 20
0.0
 11
490.0
 21
10.0
  0
LINE
  8
Layer0
 10
490.0
 20
0.0
 11
500.0
 21
10.0
  0
LINE
  8
Layer0
 10
500.0
 20
0.0
 11
510.0
 21
10.0
  0
LINE
  8
Layer0
 10
510.0
 20
0.0
 11
520.0
 21
10.0
  0
LINE
  8
Layer0
 10
520.0
 20
0.0
 11
530.0
 21
10.0
  0
LINE
  8
Layer0
 10
530.0
 20
0.0
 11
540.0
 21
10.0
  0
LINE
  8
Layer0
 10
540.0
 20
0.0
 11
550.0
 21
10.0
  0
LINE
  8
Layer0
 10
550.0
 20
0.0
 11
560.0
 21
10.0
  0
LINE
  8
Layer0
 10
560.0
 20
0.0
 11
570.0
 21
10.0
  0
LINE
  8
Layer0
 10
570.0
 20
0.0
 11
580.0
 21
10.0
  0
LINE
  8
Layer0
 10
580.0
 20
0.0
 11
590.0
 21
10.0
  0
LINE
  8
Layer0
 10
590.0
 20
0.0
 11
600.0
 21
10.0
  0
ENDSEC
  0
EOF
